<?xml version="1.0" encoding="UTF-8"?>
<!DOCTYPE score-partwise PUBLIC "-//Recordare//DTD MusicXML 3.1 Partwise//EN" "http://www.musicxml.org/dtds/partwise.dtd">
<score-partwise version="3.1">
  <movement-title>Silent Night</movement-title>
  <identification>
    <encoding>
      <software>MuseScore 3.0.5</software>
      <encoding-date>2019-09-26</encoding-date>
      <supports element="accidental" type="yes"/>
      <supports element="beam" type="yes"/>
      <supports element="print" attribute="new-page" type="yes" value="yes"/>
      <supports element="print" attribute="new-system" type="yes" value="yes"/>
      <supports element="stem" type="yes"/>
      </encoding>
    </identification>
  <defaults>
    <scaling>
      <millimeters>7.23192</millimeters>
      <tenths>40</tenths>
      </scaling>
    <page-layout>
      <page-height>1642.31</page-height>
      <page-width>1161.84</page-width>
      <page-margins type="even">
        <left-margin>55.3103</left-margin>
        <right-margin>55.3103</right-margin>
        <top-margin>55.3103</top-margin>
        <bottom-margin>110.621</bottom-margin>
        </page-margins>
      <page-margins type="odd">
        <left-margin>55.3103</left-margin>
        <right-margin>55.3103</right-margin>
        <top-margin>55.3103</top-margin>
        <bottom-margin>110.621</bottom-margin>
        </page-margins>
      </page-layout>
    <word-font font-family="FreeSerif" font-size="10"/>
    <lyric-font font-family="FreeSerif" font-size="11"/>
    </defaults>
  <credit page="1">
    <credit-words default-x="580.919" default-y="1587" justify="center" valign="top" font-family="Times New Roman" font-size="24">Silent Night</credit-words>
    </credit>
  <part-list>
    <score-part id="P1">
      <part-name>Voice</part-name>
      <score-instrument id="P1-I1">
        <instrument-name>Voice</instrument-name>
        </score-instrument>
      <midi-device id="P1-I1" port="1"></midi-device>
      <midi-instrument id="P1-I1">
        <midi-channel>1</midi-channel>
        <midi-program>53</midi-program>
        <volume>79.5276</volume>
        <pan>0</pan>
        </midi-instrument>
      </score-part>
    </part-list>
  <part id="P1">
    <measure number="1" width="231.65">
      <print>
        <system-layout>
          <system-margins>
            <left-margin>65.41</left-margin>
            <right-margin>0.00</right-margin>
            </system-margins>
          <top-system-distance>170.00</top-system-distance>
          </system-layout>
        </print>
      <attributes>
        <divisions>4</divisions>
        <key>
          <fifths>-4</fifths>
          </key>
        <time>
          <beats>3</beats>
          <beat-type>4</beat-type>
          </time>
        <clef>
          <sign>G</sign>
          <line>2</line>
          </clef>
        </attributes>
      <note>
        <rest/>
        <duration>12</duration>
        <voice>1</voice>
        </note>
      </measure>
    <measure number="2" width="127.68">
      <note>
        <rest/>
        <duration>12</duration>
        <voice>1</voice>
        </note>
      </measure>
    <measure number="3" width="127.68">
      <note>
        <rest/>
        <duration>12</duration>
        <voice>1</voice>
        </note>
      </measure>
    <measure number="4" width="127.68">
      <note>
        <rest/>
        <duration>12</duration>
        <voice>1</voice>
        </note>
      </measure>
    <measure number="5" width="202.79">
      <note default-x="16.88" default-y="-40.00">
        <pitch>
          <step>E</step>
          <alter>-1</alter>
          <octave>4</octave>
          </pitch>
        <duration>6</duration>
        <voice>1</voice>
        <type>quarter</type>
        <dot/>
        <stem>up</stem>
        <lyric number="1" default-y="-70.00" relative-y="-10.67">
          <syllabic>begin</syllabic>
          <text font-family="Times New Roman">Si</text>
          </lyric>
        </note>
      <note default-x="95.89" default-y="-35.00">
        <pitch>
          <step>F</step>
          <octave>4</octave>
          </pitch>
        <duration>2</duration>
        <voice>1</voice>
        <type>eighth</type>
        <stem>up</stem>
        </note>
      <note default-x="136.39" default-y="-40.00">
        <pitch>
          <step>E</step>
          <alter>-1</alter>
          <octave>4</octave>
          </pitch>
        <duration>4</duration>
        <voice>1</voice>
        <type>quarter</type>
        <stem>up</stem>
        <lyric number="1" default-x="6.58" default-y="-70.00" relative-y="-10.67">
          <syllabic>end</syllabic>
          <text font-family="Times New Roman">lent</text>
          </lyric>
        </note>
      </measure>
    <measure number="6" width="168.31">
      <note default-x="32.57" default-y="-50.00">
        <pitch>
          <step>C</step>
          <octave>4</octave>
          </pitch>
        <duration>12</duration>
        <voice>1</voice>
        <type>half</type>
        <dot/>
        <stem>up</stem>
        <lyric number="1" default-x="6.22" default-y="-70.00" relative-y="-10.67">
          <syllabic>single</syllabic>
          <text font-family="Times New Roman">night</text>
          </lyric>
        </note>
      </measure>
    <measure number="7" width="211.37">
      <print new-system="yes">
        <system-layout>
          <system-margins>
            <left-margin>0.00</left-margin>
            <right-margin>0.00</right-margin>
            </system-margins>
          <system-distance>125.82</system-distance>
          </system-layout>
        </print>
      <note default-x="104.28" default-y="-40.00">
        <pitch>
          <step>E</step>
          <alter>-1</alter>
          <octave>4</octave>
          </pitch>
        <duration>6</duration>
        <voice>1</voice>
        <type>quarter</type>
        <dot/>
        <stem>up</stem>
        <lyric number="1" default-y="-70.00" relative-y="-10.87">
          <syllabic>begin</syllabic>
          <text font-family="Times New Roman">ho</text>
          </lyric>
        </note>
      <note default-x="147.52" default-y="-35.00">
        <pitch>
          <step>F</step>
          <octave>4</octave>
          </pitch>
        <duration>2</duration>
        <voice>1</voice>
        <type>eighth</type>
        <stem>up</stem>
        </note>
      <note default-x="174.30" default-y="-40.00">
        <pitch>
          <step>E</step>
          <alter>-1</alter>
          <octave>4</octave>
          </pitch>
        <duration>4</duration>
        <voice>1</voice>
        <type>quarter</type>
        <stem>up</stem>
        <lyric number="1" default-x="6.58" default-y="-70.00" relative-y="-10.87">
          <syllabic>end</syllabic>
          <text font-family="Times New Roman">ly</text>
          </lyric>
        </note>
      </measure>
    <measure number="8" width="98.33">
      <note default-x="32.57" default-y="-50.00">
        <pitch>
          <step>C</step>
          <octave>4</octave>
          </pitch>
        <duration>12</duration>
        <voice>1</voice>
        <type>half</type>
        <dot/>
        <stem>up</stem>
        <lyric number="1" default-x="6.22" default-y="-70.00" relative-y="-10.87">
          <syllabic>single</syllabic>
          <text font-family="Times New Roman">night</text>
          </lyric>
        </note>
      </measure>
    <measure number="9" width="118.79">
      <note default-x="20.47" default-y="-20.00">
        <pitch>
          <step>B</step>
          <alter>-1</alter>
          <octave>4</octave>
          </pitch>
        <duration>8</duration>
        <tie type="start"/>
        <voice>1</voice>
        <type>half</type>
        <stem>down</stem>
        <notations>
          <tied type="start"/>
          </notations>
        <lyric number="1" default-x="6.94" default-y="-70.00" relative-y="-10.87">
          <syllabic>single</syllabic>
          <text font-family="Times New Roman">all</text>
          </lyric>
        </note>
      <note default-x="67.63" default-y="-20.00">
        <pitch>
          <step>B</step>
          <alter>-1</alter>
          <octave>4</octave>
          </pitch>
        <duration>2</duration>
        <tie type="stop"/>
        <voice>1</voice>
        <type>eighth</type>
        <stem>down</stem>
        <beam number="1">begin</beam>
        <notations>
          <tied type="stop"/>
          </notations>
        </note>
      <note default-x="88.90" default-y="-20.00">
        <pitch>
          <step>B</step>
          <alter>-1</alter>
          <octave>4</octave>
          </pitch>
        <duration>2</duration>
        <voice>1</voice>
        <type>eighth</type>
        <stem>down</stem>
        <beam number="1">end</beam>
        <lyric number="1" default-x="6.58" default-y="-70.00" relative-y="-10.87">
          <syllabic>single</syllabic>
          <text font-family="Times New Roman">is</text>
          </lyric>
        </note>
      </measure>
    <measure number="10" width="95.45">
      <note default-x="31.20" default-y="-30.00">
        <pitch>
          <step>G</step>
          <octave>4</octave>
          </pitch>
        <duration>12</duration>
        <voice>1</voice>
        <type>half</type>
        <dot/>
        <stem>up</stem>
        <lyric number="1" default-x="6.22" default-y="-70.00" relative-y="-10.87">
          <syllabic>single</syllabic>
          <text font-family="Times New Roman">calm</text>
          </lyric>
        </note>
      </measure>
    <measure number="11" width="118.79">
      <note default-x="20.47" default-y="-25.00">
        <pitch>
          <step>A</step>
          <alter>-1</alter>
          <octave>4</octave>
          </pitch>
        <duration>8</duration>
        <tie type="start"/>
        <voice>1</voice>
        <type>half</type>
        <stem>up</stem>
        <notations>
          <tied type="start"/>
          </notations>
        <lyric number="1" default-x="6.22" default-y="-70.00" relative-y="-10.87">
          <syllabic>single</syllabic>
          <text font-family="Times New Roman">all</text>
          </lyric>
        </note>
      <note default-x="67.63" default-y="-25.00">
        <pitch>
          <step>A</step>
          <alter>-1</alter>
          <octave>4</octave>
          </pitch>
        <duration>2</duration>
        <tie type="stop"/>
        <voice>1</voice>
        <type>eighth</type>
        <stem>up</stem>
        <beam number="1">begin</beam>
        <notations>
          <tied type="stop"/>
          </notations>
        </note>
      <note default-x="88.90" default-y="-25.00">
        <pitch>
          <step>A</step>
          <alter>-1</alter>
          <octave>4</octave>
          </pitch>
        <duration>2</duration>
        <voice>1</voice>
        <type>eighth</type>
        <stem>up</stem>
        <beam number="1">end</beam>
        <lyric number="1" default-x="6.58" default-y="-70.00" relative-y="-10.87">
          <syllabic>single</syllabic>
          <text font-family="Times New Roman">is</text>
          </lyric>
        </note>
      </measure>
    <measure number="12" width="106.54">
      <note default-x="36.47" default-y="-40.00">
        <pitch>
          <step>E</step>
          <alter>-1</alter>
          <octave>4</octave>
          </pitch>
        <duration>12</duration>
        <voice>1</voice>
        <type>half</type>
        <dot/>
        <stem>up</stem>
        <lyric number="1" default-x="6.22" default-y="-70.00" relative-y="-10.87">
          <syllabic>single</syllabic>
          <text font-family="Times New Roman">bright</text>
          </lyric>
        </note>
      </measure>
    <measure number="13" width="171.95">
      <note default-x="35.69" default-y="-35.00">
        <pitch>
          <step>F</step>
          <octave>4</octave>
          </pitch>
        <duration>8</duration>
        <tie type="start"/>
        <voice>1</voice>
        <type>half</type>
        <stem>up</stem>
        <notations>
          <tied type="start"/>
          </notations>
        <lyric number="1" default-x="6.22" default-y="-70.00" relative-y="-10.87">
          <syllabic>single</syllabic>
          <text font-family="Times New Roman">round</text>
          </lyric>
        </note>
      <note default-x="102.16" default-y="-35.00">
        <pitch>
          <step>F</step>
          <octave>4</octave>
          </pitch>
        <duration>2</duration>
        <tie type="stop"/>
        <voice>1</voice>
        <type>eighth</type>
        <stem>up</stem>
        <beam number="1">begin</beam>
        <notations>
          <tied type="stop"/>
          </notations>
        </note>
      <note default-x="132.50" default-y="-35.00">
        <pitch>
          <step>F</step>
          <octave>4</octave>
          </pitch>
        <duration>2</duration>
        <voice>1</voice>
        <type>eighth</type>
        <stem>up</stem>
        <beam number="1">end</beam>
        <lyric number="1" default-x="6.58" default-y="-70.00" relative-y="-10.87">
          <syllabic>single</syllabic>
          <text font-family="Times New Roman">yon</text>
          </lyric>
        </note>
      </measure>
    <measure number="14" width="130.00">
      <note default-x="16.88" default-y="-25.00">
        <pitch>
          <step>A</step>
          <alter>-1</alter>
          <octave>4</octave>
          </pitch>
        <duration>6</duration>
        <voice>1</voice>
        <type>quarter</type>
        <dot/>
        <stem>up</stem>
        <lyric number="1" default-y="-70.00" relative-y="-10.87">
          <syllabic>begin</syllabic>
          <text font-family="Times New Roman">vir</text>
          </lyric>
        </note>
      <note default-x="63.44" default-y="-30.00">
        <pitch>
          <step>G</step>
          <octave>4</octave>
          </pitch>
        <duration>2</duration>
        <voice>1</voice>
        <type>eighth</type>
        <stem>up</stem>
        </note>
      <note default-x="90.22" default-y="-35.00">
        <pitch>
          <step>F</step>
          <octave>4</octave>
          </pitch>
        <duration>4</duration>
        <voice>1</voice>
        <type>quarter</type>
        <stem>up</stem>
        <lyric number="1" default-x="6.58" default-y="-70.00" relative-y="-10.87">
          <syllabic>end</syllabic>
          <text font-family="Times New Roman">gin</text>
          </lyric>
        </note>
      </measure>
    <measure number="15" width="279.05">
      <print new-system="yes">
        <system-layout>
          <system-margins>
            <left-margin>0.00</left-margin>
            <right-margin>-0.00</right-margin>
            </system-margins>
          <system-distance>125.82</system-distance>
          </system-layout>
        </print>
      <note>
        <rest/>
        <duration>2</duration>
        <voice>1</voice>
        <type>eighth</type>
        </note>
      <note default-x="134.58" default-y="-40.00">
        <pitch>
          <step>E</step>
          <alter>-1</alter>
          <octave>4</octave>
          </pitch>
        <duration>4</duration>
        <voice>1</voice>
        <type>quarter</type>
        <stem>up</stem>
        <lyric number="1" default-x="6.58" default-y="-70.00" relative-y="-15.75">
          <syllabic>begin</syllabic>
          <text font-family="Times New Roman">mo</text>
          </lyric>
        </note>
      <note default-x="182.75" default-y="-35.00">
        <pitch>
          <step>F</step>
          <octave>4</octave>
          </pitch>
        <duration>2</duration>
        <voice>1</voice>
        <type>eighth</type>
        <stem>up</stem>
        <lyric number="1" default-x="6.58" default-y="-70.00" relative-y="-15.75">
          <syllabic>end</syllabic>
          <text font-family="Times New Roman">ther</text>
          </lyric>
        </note>
      <note default-x="229.28" default-y="-40.00">
        <pitch>
          <step>E</step>
          <alter>-1</alter>
          <octave>4</octave>
          </pitch>
        <duration>4</duration>
        <voice>1</voice>
        <type>quarter</type>
        <stem>up</stem>
        <lyric number="1" default-x="6.58" default-y="-70.00" relative-y="-15.75">
          <syllabic>single</syllabic>
          <text font-family="Times New Roman">and</text>
          </lyric>
        </note>
      </measure>
    <measure number="16" width="94.16">
      <note default-x="31.98" default-y="-50.00">
        <pitch>
          <step>C</step>
          <octave>4</octave>
          </pitch>
        <duration>12</duration>
        <voice>1</voice>
        <type>half</type>
        <dot/>
        <stem>up</stem>
        <lyric number="1" default-x="6.22" default-y="-70.00" relative-y="-15.75">
          <syllabic>single</syllabic>
          <text font-family="Times New Roman">child</text>
          </lyric>
        </note>
      </measure>
    <measure number="17" width="114.22">
      <note>
        <rest/>
        <duration>2</duration>
        <voice>1</voice>
        <type>eighth</type>
        </note>
      <note default-x="34.27" default-y="-35.00">
        <pitch>
          <step>F</step>
          <octave>4</octave>
          </pitch>
        <duration>6</duration>
        <voice>1</voice>
        <type>quarter</type>
        <dot/>
        <stem>up</stem>
        <lyric number="1" default-x="6.58" default-y="-70.00" relative-y="-15.75">
          <syllabic>begin</syllabic>
          <text font-family="Times New Roman">ho</text>
          </lyric>
        </note>
      <note default-x="77.31" default-y="-35.00">
        <pitch>
          <step>F</step>
          <octave>4</octave>
          </pitch>
        <duration>4</duration>
        <voice>1</voice>
        <type>quarter</type>
        <stem>up</stem>
        <lyric number="1" default-x="6.58" default-y="-70.00" relative-y="-15.75">
          <syllabic>end</syllabic>
          <text font-family="Times New Roman">ly</text>
          </lyric>
        </note>
      </measure>
    <measure number="18" width="130.22">
      <note default-x="18.69" default-y="-25.00">
        <pitch>
          <step>A</step>
          <alter>-1</alter>
          <octave>4</octave>
          </pitch>
        <duration>6</duration>
        <voice>1</voice>
        <type>quarter</type>
        <dot/>
        <stem>up</stem>
        <lyric number="1" default-x="6.58" default-y="-70.00" relative-y="-15.75">
          <syllabic>begin</syllabic>
          <text font-family="Times New Roman">in</text>
          </lyric>
        </note>
      <note default-x="64.57" default-y="-30.00">
        <pitch>
          <step>G</step>
          <octave>4</octave>
          </pitch>
        <duration>2</duration>
        <voice>1</voice>
        <type>eighth</type>
        <stem>up</stem>
        <lyric number="1" default-x="6.58" default-y="-70.00" relative-y="-15.75">
          <syllabic>end</syllabic>
          <text font-family="Times New Roman">fant</text>
          </lyric>
        </note>
      <note>
        <rest/>
        <duration>4</duration>
        <voice>1</voice>
        <type>quarter</type>
        </note>
      </measure>
    <measure number="19" width="214.80">
      <note>
        <rest/>
        <duration>2</duration>
        <voice>1</voice>
        <type>eighth</type>
        </note>
      <note default-x="39.22" default-y="-60.00">
        <pitch>
          <step>A</step>
          <alter>-1</alter>
          <octave>3</octave>
          </pitch>
        <duration>2</duration>
        <voice>1</voice>
        <type>eighth</type>
        <stem>up</stem>
        <lyric number="1" default-x="6.58" default-y="-70.00" relative-y="-15.75">
          <syllabic>single</syllabic>
          <text font-family="Times New Roman">so</text>
          </lyric>
        </note>
      <note default-x="68.73" default-y="-40.00">
        <pitch>
          <step>E</step>
          <alter>-1</alter>
          <octave>4</octave>
          </pitch>
        <duration>4</duration>
        <tie type="start"/>
        <voice>1</voice>
        <type>quarter</type>
        <stem>up</stem>
        <notations>
          <tied type="start"/>
          </notations>
        <lyric number="1" default-y="-70.00" relative-y="-15.75">
          <syllabic>begin</syllabic>
          <text font-family="Times New Roman">ten</text>
          </lyric>
        </note>
      <note default-x="105.89" default-y="-40.00">
        <pitch>
          <step>E</step>
          <alter>-1</alter>
          <octave>4</octave>
          </pitch>
        <duration>2</duration>
        <tie type="stop"/>
        <voice>1</voice>
        <type>eighth</type>
        <stem>up</stem>
        <beam number="1">begin</beam>
        <notations>
          <tied type="stop"/>
          </notations>
        </note>
      <note default-x="132.91" default-y="-35.00">
        <pitch>
          <step>F</step>
          <octave>4</octave>
          </pitch>
        <duration>1</duration>
        <voice>1</voice>
        <type>16th</type>
        <stem>up</stem>
        <beam number="1">continue</beam>
        <beam number="2">begin</beam>
        <lyric number="1" default-x="6.58" default-y="-70.00" relative-y="-15.75">
          <syllabic>end</syllabic>
          <text font-family="Times New Roman">der</text>
          </lyric>
        </note>
      <note default-x="176.13" default-y="-40.00">
        <pitch>
          <step>E</step>
          <alter>-1</alter>
          <octave>4</octave>
          </pitch>
        <duration>1</duration>
        <voice>1</voice>
        <type>16th</type>
        <stem>up</stem>
        <beam number="1">end</beam>
        <beam number="2">end</beam>
        <lyric number="1" default-x="6.58" default-y="-70.00" relative-y="-15.75">
          <syllabic>single</syllabic>
          <text font-family="Times New Roman">and</text>
          </lyric>
        </note>
      </measure>
    <measure number="20" width="90.87">
      <note default-x="30.42" default-y="-50.00">
        <pitch>
          <step>C</step>
          <octave>4</octave>
          </pitch>
        <duration>12</duration>
        <voice>1</voice>
        <type>half</type>
        <dot/>
        <stem>up</stem>
        <lyric number="1" default-x="6.22" default-y="-70.00" relative-y="-15.75">
          <syllabic>single</syllabic>
          <text font-family="Times New Roman">mild</text>
          </lyric>
        </note>
      </measure>
    <measure number="21" width="127.90">
      <note default-x="31.98" default-y="-20.00">
        <pitch>
          <step>B</step>
          <alter>-1</alter>
          <octave>4</octave>
          </pitch>
        <duration>8</duration>
        <voice>1</voice>
        <type>half</type>
        <stem>down</stem>
        <lyric number="1" default-x="6.94" default-y="-70.00" relative-y="-15.75">
          <syllabic>single</syllabic>
          <text font-family="Times New Roman">sleep</text>
          </lyric>
        </note>
      <note default-x="90.16" default-y="-20.00">
        <pitch>
          <step>B</step>
          <alter>-1</alter>
          <octave>4</octave>
          </pitch>
        <duration>4</duration>
        <voice>1</voice>
        <type>quarter</type>
        <stem>down</stem>
        <lyric number="1" default-x="6.58" default-y="-70.00" relative-y="-15.75">
          <syllabic>single</syllabic>
          <text font-family="Times New Roman">in</text>
          </lyric>
        </note>
      </measure>
    <measure number="22" width="263.45">
      <print new-system="yes">
        <system-layout>
          <system-margins>
            <left-margin>0.00</left-margin>
            <right-margin>-0.00</right-margin>
            </system-margins>
          <system-distance>125.82</system-distance>
          </system-layout>
        </print>
      <note default-x="104.28" default-y="-10.00">
        <pitch>
          <step>D</step>
          <alter>-1</alter>
          <octave>5</octave>
          </pitch>
        <duration>6</duration>
        <voice>1</voice>
        <type>quarter</type>
        <dot/>
        <stem>down</stem>
        <lyric number="1" default-x="6.58" default-y="-70.00" relative-y="-26.99">
          <syllabic>begin</syllabic>
          <text font-family="Times New Roman">hea</text>
          </lyric>
        </note>
      <note default-x="170.00" default-y="-20.00">
        <pitch>
          <step>B</step>
          <alter>-1</alter>
          <octave>4</octave>
          </pitch>
        <duration>2</duration>
        <voice>1</voice>
        <type>eighth</type>
        <stem>down</stem>
        <lyric number="1" default-x="6.58" default-y="-70.00" relative-y="-26.99">
          <syllabic>middle</syllabic>
          <text font-family="Times New Roman">ven</text>
          </lyric>
        </note>
      <note default-x="207.95" default-y="-30.00">
        <pitch>
          <step>G</step>
          <octave>4</octave>
          </pitch>
        <duration>4</duration>
        <voice>1</voice>
        <type>quarter</type>
        <stem>up</stem>
        <lyric number="1" default-x="6.58" default-y="-70.00" relative-y="-26.99">
          <syllabic>end</syllabic>
          <text font-family="Times New Roman">ly</text>
          </lyric>
        </note>
      </measure>
    <measure number="23" width="121.35">
      <note default-x="34.91" default-y="-25.00">
        <pitch>
          <step>A</step>
          <alter>-1</alter>
          <octave>4</octave>
          </pitch>
        <duration>12</duration>
        <voice>1</voice>
        <type>half</type>
        <dot/>
        <stem>up</stem>
        <lyric number="1" default-x="6.22" default-y="-70.00" relative-y="-26.99">
          <syllabic>single</syllabic>
          <text font-family="Times New Roman">peace</text>
          </lyric>
        </note>
      </measure>
    <measure number="24" width="82.36">
      <note default-x="12.36" default-y="-15.00">
        <pitch>
          <step>C</step>
          <octave>5</octave>
          </pitch>
        <duration>12</duration>
        <voice>1</voice>
        <type>half</type>
        <dot/>
        <stem>down</stem>
        </note>
      </measure>
    <measure number="25" width="181.27">
      <note default-x="32.34" default-y="-25.00">
        <pitch>
          <step>A</step>
          <alter>-1</alter>
          <octave>4</octave>
          </pitch>
        <duration>4</duration>
        <voice>1</voice>
        <type>quarter</type>
        <stem>up</stem>
        <lyric number="1" default-x="6.58" default-y="-70.00" relative-y="-26.99">
          <syllabic>single</syllabic>
          <text font-family="Times New Roman">sleep</text>
          </lyric>
        </note>
      <note default-x="75.98" default-y="-40.00">
        <pitch>
          <step>E</step>
          <alter>-1</alter>
          <octave>4</octave>
          </pitch>
        <duration>4</duration>
        <voice>1</voice>
        <type>quarter</type>
        <stem>up</stem>
        </note>
      <note>
        <rest/>
        <duration>2</duration>
        <voice>1</voice>
        <type>eighth</type>
        </note>
      <note default-x="146.89" default-y="-50.00">
        <pitch>
          <step>C</step>
          <octave>4</octave>
          </pitch>
        <duration>2</duration>
        <voice>1</voice>
        <type>eighth</type>
        <stem>up</stem>
        <lyric number="1" default-x="6.58" default-y="-70.00" relative-y="-26.99">
          <syllabic>single</syllabic>
          <text font-family="Times New Roman">in</text>
          </lyric>
        </note>
      </measure>
    <measure number="26" width="184.69">
      <note default-x="25.51" default-y="-40.00">
        <pitch>
          <step>E</step>
          <alter>-1</alter>
          <octave>4</octave>
          </pitch>
        <duration>6</duration>
        <voice>1</voice>
        <type>quarter</type>
        <dot/>
        <stem>up</stem>
        <lyric number="1" default-x="6.58" default-y="-70.00" relative-y="-26.99">
          <syllabic>begin</syllabic>
          <text font-family="Times New Roman">hea</text>
          </lyric>
        </note>
      <note default-x="91.24" default-y="-45.00">
        <pitch>
          <step>D</step>
          <alter>-1</alter>
          <octave>4</octave>
          </pitch>
        <duration>2</duration>
        <voice>1</voice>
        <type>eighth</type>
        <stem>up</stem>
        <lyric number="1" default-x="6.58" default-y="-70.00" relative-y="-26.99">
          <syllabic>middle</syllabic>
          <text font-family="Times New Roman">ven</text>
          </lyric>
        </note>
      <note default-x="129.19" default-y="-55.00">
        <pitch>
          <step>B</step>
          <alter>-1</alter>
          <octave>3</octave>
          </pitch>
        <duration>4</duration>
        <voice>1</voice>
        <type>quarter</type>
        <stem>up</stem>
        <lyric number="1" default-x="6.58" default-y="-70.00" relative-y="-26.99">
          <syllabic>end</syllabic>
          <text font-family="Times New Roman">ly</text>
          </lyric>
        </note>
      </measure>
    <measure number="27" width="121.35">
      <note default-x="34.91" default-y="-60.00">
        <pitch>
          <step>A</step>
          <alter>-1</alter>
          <octave>3</octave>
          </pitch>
        <duration>12</duration>
        <tie type="start"/>
        <voice>1</voice>
        <type>half</type>
        <dot/>
        <stem>up</stem>
        <notations>
          <tied type="start"/>
          </notations>
        <lyric number="1" default-x="6.22" default-y="-70.00" relative-y="-26.99">
          <syllabic>single</syllabic>
          <text font-family="Times New Roman">peace</text>
          </lyric>
        </note>
      </measure>
    <measure number="28" width="96.73">
      <note default-x="15.60" default-y="-60.00">
        <pitch>
          <step>A</step>
          <alter>-1</alter>
          <octave>3</octave>
          </pitch>
        <duration>8</duration>
        <tie type="stop"/>
        <voice>1</voice>
        <type>half</type>
        <stem>up</stem>
        <notations>
          <tied type="stop"/>
          </notations>
        </note>
      <note>
        <rest/>
        <duration>4</duration>
        <voice>1</voice>
        <type>quarter</type>
        </note>
      </measure>
    <measure number="29" width="228.81">
      <print new-system="yes">
        <system-layout>
          <system-margins>
            <left-margin>0.00</left-margin>
            <right-margin>-0.00</right-margin>
            </system-margins>
          <system-distance>134.83</system-distance>
          </system-layout>
        </print>
      <note default-x="104.28" default-y="-40.00">
        <pitch>
          <step>E</step>
          <alter>-1</alter>
          <octave>4</octave>
          </pitch>
        <duration>6</duration>
        <voice>1</voice>
        <type>quarter</type>
        <dot/>
        <stem>up</stem>
        <lyric number="1" default-y="-70.00" relative-y="-10.87">
          <syllabic>begin</syllabic>
          <text font-family="Times New Roman" font-size="10.7317">Si</text>
          </lyric>
        </note>
      <note default-x="156.98" default-y="-35.00">
        <pitch>
          <step>F</step>
          <octave>4</octave>
          </pitch>
        <duration>2</duration>
        <voice>1</voice>
        <type>eighth</type>
        <stem>up</stem>
        </note>
      <note default-x="183.99" default-y="-40.00">
        <pitch>
          <step>E</step>
          <alter>-1</alter>
          <octave>4</octave>
          </pitch>
        <duration>4</duration>
        <voice>1</voice>
        <type>quarter</type>
        <stem>up</stem>
        <lyric number="1" default-x="6.58" default-y="-70.00" relative-y="-10.87">
          <syllabic>end</syllabic>
          <text font-family="Times New Roman" font-size="10.7317">lent</text>
          </lyric>
        </note>
      </measure>
    <measure number="30" width="106.95">
      <note default-x="32.37" default-y="-50.00">
        <pitch>
          <step>C</step>
          <octave>4</octave>
          </pitch>
        <duration>12</duration>
        <voice>1</voice>
        <type>half</type>
        <dot/>
        <stem>up</stem>
        <lyric number="1" default-x="6.22" default-y="-70.00" relative-y="-10.87">
          <syllabic>single</syllabic>
          <text font-family="Times New Roman" font-size="10.7317">night</text>
          </lyric>
        </note>
      </measure>
    <measure number="31" width="132.79">
      <note default-x="16.88" default-y="-40.00">
        <pitch>
          <step>E</step>
          <alter>-1</alter>
          <octave>4</octave>
          </pitch>
        <duration>6</duration>
        <voice>1</voice>
        <type>quarter</type>
        <dot/>
        <stem>up</stem>
        <lyric number="1" default-y="-70.00" relative-y="-10.87">
          <syllabic>begin</syllabic>
          <text font-family="Times New Roman" font-size="10.7317">ho</text>
          </lyric>
        </note>
      <note default-x="64.97" default-y="-35.00">
        <pitch>
          <step>F</step>
          <octave>4</octave>
          </pitch>
        <duration>2</duration>
        <voice>1</voice>
        <type>eighth</type>
        <stem>up</stem>
        </note>
      <note default-x="91.75" default-y="-40.00">
        <pitch>
          <step>E</step>
          <alter>-1</alter>
          <octave>4</octave>
          </pitch>
        <duration>4</duration>
        <voice>1</voice>
        <type>quarter</type>
        <stem>up</stem>
        <lyric number="1" default-x="6.58" default-y="-70.00" relative-y="-10.87">
          <syllabic>end</syllabic>
          <text font-family="Times New Roman" font-size="10.7317">ly</text>
          </lyric>
        </note>
      </measure>
    <measure number="32" width="106.95">
      <note default-x="32.37" default-y="-50.00">
        <pitch>
          <step>C</step>
          <octave>4</octave>
          </pitch>
        <duration>12</duration>
        <voice>1</voice>
        <type>half</type>
        <dot/>
        <stem>up</stem>
        <lyric number="1" default-x="6.22" default-y="-70.00" relative-y="-10.87">
          <syllabic>single</syllabic>
          <text font-family="Times New Roman" font-size="10.7317">night</text>
          </lyric>
        </note>
      </measure>
    <measure number="33" width="127.82">
      <note default-x="20.47" default-y="-20.00">
        <pitch>
          <step>B</step>
          <alter>-1</alter>
          <octave>4</octave>
          </pitch>
        <duration>8</duration>
        <tie type="start"/>
        <voice>1</voice>
        <type>half</type>
        <stem>down</stem>
        <notations>
          <tied type="start"/>
          </notations>
        <lyric number="1" default-x="6.94" default-y="-70.00" relative-y="-10.87">
          <syllabic>single</syllabic>
          <text font-family="Times New Roman">all</text>
          </lyric>
        </note>
      <note default-x="73.84" default-y="-20.00">
        <pitch>
          <step>B</step>
          <alter>-1</alter>
          <octave>4</octave>
          </pitch>
        <duration>2</duration>
        <tie type="stop"/>
        <voice>1</voice>
        <type>eighth</type>
        <stem>down</stem>
        <beam number="1">begin</beam>
        <notations>
          <tied type="stop"/>
          </notations>
        </note>
      <note default-x="97.93" default-y="-20.00">
        <pitch>
          <step>B</step>
          <alter>-1</alter>
          <octave>4</octave>
          </pitch>
        <duration>2</duration>
        <voice>1</voice>
        <type>eighth</type>
        <stem>down</stem>
        <beam number="1">end</beam>
        <lyric number="1" default-x="6.58" default-y="-70.00" relative-y="-10.87">
          <syllabic>single</syllabic>
          <text font-family="Times New Roman">is</text>
          </lyric>
        </note>
      </measure>
    <measure number="34" width="104.49">
      <note default-x="31.20" default-y="-30.00">
        <pitch>
          <step>G</step>
          <octave>4</octave>
          </pitch>
        <duration>12</duration>
        <voice>1</voice>
        <type>half</type>
        <dot/>
        <stem>up</stem>
        <lyric number="1" default-x="6.22" default-y="-70.00" relative-y="-10.87">
          <syllabic>single</syllabic>
          <text font-family="Times New Roman">calm</text>
          </lyric>
        </note>
      </measure>
    <measure number="35" width="127.82">
      <note default-x="20.47" default-y="-25.00">
        <pitch>
          <step>A</step>
          <alter>-1</alter>
          <octave>4</octave>
          </pitch>
        <duration>8</duration>
        <tie type="start"/>
        <voice>1</voice>
        <type>half</type>
        <stem>up</stem>
        <notations>
          <tied type="start"/>
          </notations>
        <lyric number="1" default-x="6.22" default-y="-70.00" relative-y="-10.87">
          <syllabic>single</syllabic>
          <text font-family="Times New Roman">all</text>
          </lyric>
        </note>
      <note default-x="73.84" default-y="-25.00">
        <pitch>
          <step>A</step>
          <alter>-1</alter>
          <octave>4</octave>
          </pitch>
        <duration>2</duration>
        <tie type="stop"/>
        <voice>1</voice>
        <type>eighth</type>
        <stem>up</stem>
        <beam number="1">begin</beam>
        <notations>
          <tied type="stop"/>
          </notations>
        </note>
      <note default-x="97.93" default-y="-25.00">
        <pitch>
          <step>A</step>
          <alter>-1</alter>
          <octave>4</octave>
          </pitch>
        <duration>2</duration>
        <voice>1</voice>
        <type>eighth</type>
        <stem>up</stem>
        <beam number="1">end</beam>
        <lyric number="1" default-x="6.58" default-y="-70.00" relative-y="-10.87">
          <syllabic>single</syllabic>
          <text font-family="Times New Roman">is</text>
          </lyric>
        </note>
      </measure>
    <measure number="36" width="115.58">
      <note default-x="36.47" default-y="-40.00">
        <pitch>
          <step>E</step>
          <alter>-1</alter>
          <octave>4</octave>
          </pitch>
        <duration>12</duration>
        <voice>1</voice>
        <type>half</type>
        <dot/>
        <stem>up</stem>
        <lyric number="1" default-x="6.22" default-y="-70.00" relative-y="-10.87">
          <syllabic>single</syllabic>
          <text font-family="Times New Roman">bright</text>
          </lyric>
        </note>
      </measure>
    <measure number="37" width="234.54">
      <print new-system="yes">
        <system-layout>
          <system-margins>
            <left-margin>0.00</left-margin>
            <right-margin>-0.00</right-margin>
            </system-margins>
          <system-distance>125.82</system-distance>
          </system-layout>
        </print>
      <note>
        <rest/>
        <duration>2</duration>
        <voice>1</voice>
        <type>eighth</type>
        </note>
      <note default-x="132.43" default-y="-35.00">
        <pitch>
          <step>F</step>
          <octave>4</octave>
          </pitch>
        <duration>8</duration>
        <voice>1</voice>
        <type>half</type>
        <stem>up</stem>
        <lyric number="1" default-x="6.22" default-y="-70.00" relative-y="-15.75">
          <syllabic>single</syllabic>
          <text font-family="Times New Roman">round</text>
          </lyric>
        </note>
      <note default-x="195.09" default-y="-35.00">
        <pitch>
          <step>F</step>
          <octave>4</octave>
          </pitch>
        <duration>2</duration>
        <voice>1</voice>
        <type>eighth</type>
        <stem>up</stem>
        <lyric number="1" default-x="6.58" default-y="-70.00" relative-y="-15.75">
          <syllabic>single</syllabic>
          <text font-family="Times New Roman">yon</text>
          </lyric>
        </note>
      </measure>
    <measure number="38" width="120.61">
      <note default-x="16.88" default-y="-25.00">
        <pitch>
          <step>A</step>
          <alter>-1</alter>
          <octave>4</octave>
          </pitch>
        <duration>6</duration>
        <voice>1</voice>
        <type>quarter</type>
        <dot/>
        <stem>up</stem>
        <lyric number="1" default-y="-70.00" relative-y="-15.75">
          <syllabic>begin</syllabic>
          <text font-family="Times New Roman" font-size="10.7317">vir</text>
          </lyric>
        </note>
      <note default-x="57.12" default-y="-30.00">
        <pitch>
          <step>G</step>
          <octave>4</octave>
          </pitch>
        <duration>2</duration>
        <voice>1</voice>
        <type>eighth</type>
        <stem>up</stem>
        </note>
      <note default-x="83.89" default-y="-35.00">
        <pitch>
          <step>F</step>
          <octave>4</octave>
          </pitch>
        <duration>4</duration>
        <voice>1</voice>
        <type>quarter</type>
        <stem>up</stem>
        <lyric number="1" default-x="6.58" default-y="-70.00" relative-y="-15.75">
          <syllabic>end</syllabic>
          <text font-family="Times New Roman" font-size="10.7317">gin</text>
          </lyric>
        </note>
      </measure>
    <measure number="39" width="178.81">
      <note>
        <rest/>
        <duration>2</duration>
        <voice>1</voice>
        <type>eighth</type>
        </note>
      <note default-x="40.55" default-y="-40.00">
        <pitch>
          <step>E</step>
          <alter>-1</alter>
          <octave>4</octave>
          </pitch>
        <duration>4</duration>
        <voice>1</voice>
        <type>quarter</type>
        <stem>up</stem>
        <lyric number="1" default-x="6.58" default-y="-70.00" relative-y="-15.75">
          <syllabic>begin</syllabic>
          <text font-family="Times New Roman" font-size="10.7317">mo</text>
          </lyric>
        </note>
      <note default-x="85.90" default-y="-35.00">
        <pitch>
          <step>F</step>
          <octave>4</octave>
          </pitch>
        <duration>2</duration>
        <voice>1</voice>
        <type>eighth</type>
        <stem>up</stem>
        <lyric number="1" default-x="6.58" default-y="-70.00" relative-y="-15.75">
          <syllabic>end</syllabic>
          <text font-family="Times New Roman" font-size="10.7317">ther</text>
          </lyric>
        </note>
      <note default-x="131.85" default-y="-40.00">
        <pitch>
          <step>E</step>
          <alter>-1</alter>
          <octave>4</octave>
          </pitch>
        <duration>4</duration>
        <voice>1</voice>
        <type>quarter</type>
        <stem>up</stem>
        <lyric number="1" default-x="6.58" default-y="-70.00" relative-y="-15.75">
          <syllabic>single</syllabic>
          <text font-family="Times New Roman" font-size="10.7317">and</text>
          </lyric>
        </note>
      </measure>
    <measure number="40" width="87.92">
      <note default-x="31.98" default-y="-50.00">
        <pitch>
          <step>C</step>
          <octave>4</octave>
          </pitch>
        <duration>12</duration>
        <voice>1</voice>
        <type>half</type>
        <dot/>
        <stem>up</stem>
        <lyric number="1" default-x="6.22" default-y="-70.00" relative-y="-15.75">
          <syllabic>single</syllabic>
          <text font-family="Times New Roman">child</text>
          </lyric>
        </note>
      </measure>
    <measure number="41" width="111.21">
      <note>
        <rest/>
        <duration>2</duration>
        <voice>1</voice>
        <type>eighth</type>
        </note>
      <note default-x="32.04" default-y="-35.00">
        <pitch>
          <step>F</step>
          <octave>4</octave>
          </pitch>
        <duration>8</duration>
        <voice>1</voice>
        <type>half</type>
        <stem>up</stem>
        <lyric number="1" default-x="6.22" default-y="-70.00" relative-y="-15.75">
          <syllabic>begin</syllabic>
          <text font-family="Times New Roman">ho</text>
          </lyric>
        </note>
      <note default-x="76.84" default-y="-35.00">
        <pitch>
          <step>F</step>
          <octave>4</octave>
          </pitch>
        <duration>2</duration>
        <voice>1</voice>
        <type>eighth</type>
        <stem>up</stem>
        <lyric number="1" default-x="6.58" default-y="-70.00" relative-y="-15.75">
          <syllabic>end</syllabic>
          <text font-family="Times New Roman">ly</text>
          </lyric>
        </note>
      </measure>
    <measure number="42" width="152.75">
      <note default-x="18.69" default-y="-25.00">
        <pitch>
          <step>A</step>
          <alter>-1</alter>
          <octave>4</octave>
          </pitch>
        <duration>6</duration>
        <voice>1</voice>
        <type>quarter</type>
        <dot/>
        <stem>up</stem>
        <lyric number="1" default-x="6.58" default-y="-70.00" relative-y="-15.75">
          <syllabic>begin</syllabic>
          <text font-family="Times New Roman">in</text>
          </lyric>
        </note>
      <note default-x="67.62" default-y="-30.00">
        <pitch>
          <step>G</step>
          <octave>4</octave>
          </pitch>
        <duration>2</duration>
        <voice>1</voice>
        <type>eighth</type>
        <stem>up</stem>
        <lyric number="1" default-x="6.58" default-y="-70.00" relative-y="-15.75">
          <syllabic>end</syllabic>
          <text font-family="Times New Roman">fant</text>
          </lyric>
        </note>
      <note>
        <rest/>
        <duration>2</duration>
        <voice>1</voice>
        <type>eighth</type>
        </note>
      <note default-x="118.38" default-y="-60.00">
        <pitch>
          <step>A</step>
          <alter>-1</alter>
          <octave>3</octave>
          </pitch>
        <duration>2</duration>
        <voice>1</voice>
        <type>eighth</type>
        <stem>up</stem>
        <lyric number="1" default-x="6.58" default-y="-70.00" relative-y="-15.75">
          <syllabic>single</syllabic>
          <text font-family="Times New Roman">so</text>
          </lyric>
        </note>
      </measure>
    <measure number="43" width="165.36">
      <note default-x="23.76" default-y="-40.00">
        <pitch>
          <step>E</step>
          <alter>-1</alter>
          <octave>4</octave>
          </pitch>
        <duration>6</duration>
        <voice>1</voice>
        <type>quarter</type>
        <dot/>
        <stem>up</stem>
        <lyric number="1" default-x="6.58" default-y="-70.00" relative-y="-15.75">
          <syllabic>begin</syllabic>
          <text font-family="Times New Roman">ten</text>
          </lyric>
        </note>
      <note default-x="76.93" default-y="-35.00">
        <pitch>
          <step>F</step>
          <octave>4</octave>
          </pitch>
        <duration>2</duration>
        <voice>1</voice>
        <type>eighth</type>
        <stem>up</stem>
        <lyric number="1" default-x="6.58" default-y="-70.00" relative-y="-15.75">
          <syllabic>end</syllabic>
          <text font-family="Times New Roman">der</text>
          </lyric>
        </note>
      <note default-x="120.15" default-y="-40.00">
        <pitch>
          <step>E</step>
          <alter>-1</alter>
          <octave>4</octave>
          </pitch>
        <duration>4</duration>
        <voice>1</voice>
        <type>quarter</type>
        <stem>up</stem>
        <lyric number="1" default-x="6.58" default-y="-70.00" relative-y="-15.75">
          <syllabic>single</syllabic>
          <text font-family="Times New Roman">and</text>
          </lyric>
        </note>
      </measure>
    <measure number="44" width="169.33">
      <print new-system="yes">
        <system-layout>
          <system-margins>
            <left-margin>0.00</left-margin>
            <right-margin>-0.00</right-margin>
            </system-margins>
          <system-distance>125.82</system-distance>
          </system-layout>
        </print>
      <note default-x="107.88" default-y="-50.00">
        <pitch>
          <step>C</step>
          <octave>4</octave>
          </pitch>
        <duration>12</duration>
        <voice>1</voice>
        <type>half</type>
        <dot/>
        <stem>up</stem>
        <lyric number="1" default-x="6.22" default-y="-70.00" relative-y="-25.24">
          <syllabic>single</syllabic>
          <text font-family="Times New Roman">mild</text>
          </lyric>
        </note>
      </measure>
    <measure number="45" width="128.90">
      <note default-x="31.98" default-y="-20.00">
        <pitch>
          <step>B</step>
          <alter>-1</alter>
          <octave>4</octave>
          </pitch>
        <duration>8</duration>
        <voice>1</voice>
        <type>half</type>
        <stem>down</stem>
        <lyric number="1" default-x="6.94" default-y="-70.00" relative-y="-25.24">
          <syllabic>single</syllabic>
          <text font-family="Times New Roman">sleep</text>
          </lyric>
        </note>
      <note default-x="90.78" default-y="-20.00">
        <pitch>
          <step>B</step>
          <alter>-1</alter>
          <octave>4</octave>
          </pitch>
        <duration>4</duration>
        <voice>1</voice>
        <type>quarter</type>
        <stem>down</stem>
        <lyric number="1" default-x="6.58" default-y="-70.00" relative-y="-25.24">
          <syllabic>single</syllabic>
          <text font-family="Times New Roman">in</text>
          </lyric>
        </note>
      </measure>
    <measure number="46" width="163.38">
      <note default-x="25.32" default-y="-10.00">
        <pitch>
          <step>D</step>
          <alter>-1</alter>
          <octave>5</octave>
          </pitch>
        <duration>6</duration>
        <voice>1</voice>
        <type>quarter</type>
        <dot/>
        <stem>down</stem>
        <lyric number="1" default-x="6.58" default-y="-70.00" relative-y="-25.24">
          <syllabic>begin</syllabic>
          <text font-family="Times New Roman" font-size="10.7317">hea</text>
          </lyric>
        </note>
      <note default-x="79.66" default-y="-20.00">
        <pitch>
          <step>B</step>
          <alter>-1</alter>
          <octave>4</octave>
          </pitch>
        <duration>2</duration>
        <voice>1</voice>
        <type>eighth</type>
        <stem>down</stem>
        <lyric number="1" default-x="6.58" default-y="-70.00" relative-y="-25.24">
          <syllabic>middle</syllabic>
          <text font-family="Times New Roman" font-size="10.7317">ven</text>
          </lyric>
        </note>
      <note default-x="117.22" default-y="-30.00">
        <pitch>
          <step>G</step>
          <octave>4</octave>
          </pitch>
        <duration>4</duration>
        <voice>1</voice>
        <type>quarter</type>
        <stem>up</stem>
        <lyric number="1" default-x="6.58" default-y="-70.00" relative-y="-25.24">
          <syllabic>end</syllabic>
          <text font-family="Times New Roman" font-size="10.7317">ly</text>
          </lyric>
        </note>
      </measure>
    <measure number="47" width="101.32">
      <note default-x="34.91" default-y="-25.00">
        <pitch>
          <step>A</step>
          <alter>-1</alter>
          <octave>4</octave>
          </pitch>
        <duration>12</duration>
        <tie type="start"/>
        <voice>1</voice>
        <type>half</type>
        <dot/>
        <stem>up</stem>
        <notations>
          <tied type="start"/>
          </notations>
        <lyric number="1" default-x="6.22" default-y="-70.00" relative-y="-25.24">
          <syllabic>single</syllabic>
          <text font-family="Times New Roman">peace</text>
          </lyric>
        </note>
      </measure>
    <measure number="48" width="62.37">
      <note default-x="12.00" default-y="-25.00">
        <pitch>
          <step>A</step>
          <alter>-1</alter>
          <octave>4</octave>
          </pitch>
        <duration>12</duration>
        <tie type="stop"/>
        <voice>1</voice>
        <type>half</type>
        <dot/>
        <stem>up</stem>
        <notations>
          <tied type="stop"/>
          </notations>
        </note>
      </measure>
    <measure number="49" width="161.23">
      <note default-x="32.34" default-y="-25.00">
        <pitch>
          <step>A</step>
          <alter>-1</alter>
          <octave>4</octave>
          </pitch>
        <duration>2</duration>
        <voice>1</voice>
        <type>eighth</type>
        <stem>up</stem>
        <lyric number="1" default-x="6.58" default-y="-70.00" relative-y="-25.24">
          <syllabic>single</syllabic>
          <text font-family="Times New Roman">sleep</text>
          </lyric>
        </note>
      <note default-x="68.34" default-y="-40.00">
        <pitch>
          <step>E</step>
          <alter>-1</alter>
          <octave>4</octave>
          </pitch>
        <duration>6</duration>
        <voice>1</voice>
        <type>quarter</type>
        <dot/>
        <stem>up</stem>
        </note>
      <note>
        <rest/>
        <duration>2</duration>
        <voice>1</voice>
        <type>eighth</type>
        </note>
      <note default-x="126.86" default-y="-50.00">
        <pitch>
          <step>C</step>
          <octave>4</octave>
          </pitch>
        <duration>2</duration>
        <voice>1</voice>
        <type>eighth</type>
        <stem>up</stem>
        <lyric number="1" default-x="6.58" default-y="-70.00" relative-y="-25.24">
          <syllabic>single</syllabic>
          <text font-family="Times New Roman">in</text>
          </lyric>
        </note>
      </measure>
    <measure number="50" width="163.38">
      <note default-x="25.32" default-y="-40.00">
        <pitch>
          <step>E</step>
          <alter>-1</alter>
          <octave>4</octave>
          </pitch>
        <duration>6</duration>
        <voice>1</voice>
        <type>quarter</type>
        <dot/>
        <stem>up</stem>
        <lyric number="1" default-x="6.58" default-y="-70.00" relative-y="-25.24">
          <syllabic>begin</syllabic>
          <text font-family="Times New Roman" font-size="10.7317">hea</text>
          </lyric>
        </note>
      <note default-x="79.66" default-y="-45.00">
        <pitch>
          <step>D</step>
          <alter>-1</alter>
          <octave>4</octave>
          </pitch>
        <duration>2</duration>
        <voice>1</voice>
        <type>eighth</type>
        <stem>up</stem>
        <lyric number="1" default-x="6.58" default-y="-70.00" relative-y="-25.24">
          <syllabic>middle</syllabic>
          <text font-family="Times New Roman" font-size="10.7317">ven</text>
          </lyric>
        </note>
      <note default-x="117.22" default-y="-55.00">
        <pitch>
          <step>B</step>
          <alter>-1</alter>
          <octave>3</octave>
          </pitch>
        <duration>4</duration>
        <voice>1</voice>
        <type>quarter</type>
        <stem>up</stem>
        <lyric number="1" default-x="6.58" default-y="-70.00" relative-y="-25.24">
          <syllabic>end</syllabic>
          <text font-family="Times New Roman" font-size="10.7317">ly</text>
          </lyric>
        </note>
      </measure>
    <measure number="51" width="101.32">
      <note default-x="34.91" default-y="-60.00">
        <pitch>
          <step>A</step>
          <alter>-1</alter>
          <octave>3</octave>
          </pitch>
        <duration>12</duration>
        <tie type="start"/>
        <voice>1</voice>
        <type>half</type>
        <dot/>
        <stem>up</stem>
        <notations>
          <tied type="start"/>
          </notations>
        <lyric number="1" default-x="6.22" default-y="-70.00" relative-y="-25.24">
          <syllabic>single</syllabic>
          <text font-family="Times New Roman">peace</text>
          </lyric>
        </note>
      </measure>
    <measure number="52" width="321.08">
      <print new-system="yes">
        <system-layout>
          <system-margins>
            <left-margin>0.00</left-margin>
            <right-margin>730.14</right-margin>
            </system-margins>
          <system-distance>125.82</system-distance>
          </system-layout>
        </print>
      <note default-x="107.88" default-y="-60.00">
        <pitch>
          <step>A</step>
          <alter>-1</alter>
          <octave>3</octave>
          </pitch>
        <duration>8</duration>
        <tie type="stop"/>
        <voice>1</voice>
        <type>half</type>
        <stem>up</stem>
        <notations>
          <tied type="stop"/>
          </notations>
        </note>
      <note>
        <rest/>
        <duration>4</duration>
        <voice>1</voice>
        <type>quarter</type>
        </note>
      <barline location="right">
        <bar-style>light-heavy</bar-style>
        </barline>
      </measure>
    </part>
  </score-partwise>
